<mxfile host="app.diagrams.net" modified="2024-06-06T09:09:29.415Z" agent="Mozilla/5.0 (Windows NT 10.0; Win64; x64) AppleWebKit/537.36 (KHTML, like Gecko) Chrome/125.0.0.0 Safari/537.36" version="24.4.14" etag="0VAFH2bs1GfVxCtNHiTO" type="github">
  <diagram name="第1頁" id="50hvYKVj4ocF_K6C37Nk">
    <mxGraphModel>
      <root>
        <mxCell id="0" />
        <mxCell id="1" parent="0" />
      </root>
    </mxGraphModel>
  </diagram>
</mxfile>
